# xmcd
#
# Track frame offsets:
#	150
#	19650
#	38102
#	55052
#	74552
#	91205
#	107105
#	126530
#	146857
#	167932
#	184357
#
# Disc length: 2751 seconds
#
# Revision: 3
# Processed by: cddbd v1.5.2PL0 Copyright (c) Steve Scherf et al.
# Submitted via: EasyCDDAExtractor 15.3.0.1
#
DISCID=a60abd0b
DTITLE=Emanuel Ortega - A Escondidas
DYEAR=2000
DGENRE=Latin
TTITLE0=A Escondidas
TTITLE1=Celoso
TTITLE2=Quiero (Dueto Con Guadalupe Esparza)
TTITLE3=Late Corazon
TTITLE4=Catalina
TTITLE5=Ojitos Negros
TTITLE6=Vuelve A Casa
TTITLE7=El Ultimo Dia
TTITLE8=Domingos Sin Tu Amor
TTITLE9=Quiero (Acustico)
TTITLE10=A Escondidas (TNN Dance Remix)
EXTD=
EXTT0=
EXTT1=
EXTT2=
EXTT3=
EXTT4=
EXTT5=
EXTT6=
EXTT7=
EXTT8=
EXTT9=
EXTT10=
PLAYORDER=
